<?xml version="1.0" encoding="utf-8"?>
<!-- Generator: Adobe Illustrator 27.7.0, SVG Export Plug-In . SVG Version: 6.00 Build 0)  -->
<svg version="1.1" id="Layer_1" xmlns="http://www.w3.org/2000/svg" xmlns:xlink="http://www.w3.org/1999/xlink" x="0px" y="0px"
	 viewBox="0 0 882.85 225.77" style="enable-background:new 0 0 882.85 225.77;" xml:space="preserve">
<style type="text/css">
	.st0{fill:#00ACAC;}
	.st1{fill:#202C3A;}
</style>
<g id="Sults_x5F_logotipo_x5F_1_00000138557293183015620600000014379661597740858537_">
	<g>
		<g>
			<path class="st0" d="M168.7,82.15l-93.48,93.48c-0.71,0.71-1.85,0.71-2.56,0L43.2,146.18c-0.71-0.71-0.71-1.85,0-2.56
				l93.48-93.48c0.71-0.71,1.85-0.71,2.56,0l29.45,29.45C169.4,80.3,169.4,81.45,168.7,82.15"/>
			<path class="st0" d="M89.41,1.37L9.91,80.87c-8.84,8.84-8.84,23.17,0,32.01l14.73,14.73c0.71,0.71,1.85,0.71,2.56,0L150.88,3.93
				c1.14-1.14,0.33-3.09-1.28-3.09H90.69C90.21,0.84,89.75,1.03,89.41,1.37"/>
			<path class="st0" d="M184.7,98.16L61.02,221.85c-1.14,1.14-0.33,3.09,1.28,3.09h58.9c0.48,0,0.94-0.19,1.28-0.53l79.5-79.5
				c8.84-8.84,8.84-23.17,0-32.01l-14.73-14.73C186.56,97.45,185.41,97.45,184.7,98.16"/>
			<path class="st1" d="M474.7,35.37c-1,0-1.81,0.81-1.81,1.81v91.76c0,4.72-1.09,9.38-3.24,13.87c-4.69,9.1-12.54,13.52-24,13.52
				c-11.64,0-19.44-4.41-23.85-13.49l-0.03-0.06l-0.03-0.06c-2.4-4.45-3.62-9.09-3.62-13.77V37.18c0-1-0.81-1.81-1.81-1.81h-33.34
				c-1,0-1.81,0.81-1.81,1.81v91.76c0,10.66,2.76,21.44,8.21,32.04c10.71,21.52,29.65,32.45,56.28,32.45
				c26.42,0,45.4-10.92,56.42-32.46c5.17-10.64,7.78-21.4,7.78-32.03V37.18c0-1-0.81-1.81-1.81-1.81H474.7z"/>
			<path class="st1" d="M562.58,151.77V37.18c0-1-0.81-1.81-1.81-1.81h-33.34c-1,0-1.81,0.81-1.81,1.81v151.41
				c0,1,0.81,1.81,1.81,1.81h103.93c1,0,1.81-0.81,1.81-1.81v-33.2c0-1-0.81-1.81-1.81-1.81h-66.96
				C563.39,153.58,562.58,152.77,562.58,151.77"/>
			<path class="st1" d="M609.86,37.18v33.2c0,1,0.81,1.81,1.81,1.81h42.1c1,0,1.81,0.81,1.81,1.81v114.59c0,1,0.81,1.81,1.81,1.81
				h33.63c1,0,1.81-0.81,1.81-1.81V74c0-1,0.81-1.81,1.81-1.81h42.1c1,0,1.81-0.81,1.81-1.81v-33.2c0-1-0.81-1.81-1.81-1.81H611.67
				C610.67,35.37,609.86,36.18,609.86,37.18"/>
			<path class="st1" d="M354.38,114.52c-27.55-30.45-58.64-10.61-75-26.82c-2.11-2.19-2.39-4.92-2.21-7.79
				c1.2-8.45,10.45-12.74,27.5-12.74c11.09,0,19.26,2.08,28,6.16c1.94,0.97,3.46,1.81,4.64,2.52c0.72,0.43,1.63,0.32,2.22-0.27
				l22.48-22.48c0.77-0.77,0.71-2.04-0.15-2.7c-26.27-20.36-74.59-25.21-101.91-6.24c-21.86,15.17-27,47.24-8.38,66.63
				c26.54,30.53,57.57,10.63,74.08,26.77c2,2.47,2.83,4.92,2.73,7.68c-1.39,8.96-10.8,13.5-27.97,13.5
				c-12.83-0.04-22.97-3.08-32.78-9.26c-0.72-0.45-1.65-0.36-2.25,0.24l-22.54,22.54c-0.77,0.77-0.69,2.03,0.16,2.71
				c3.82,3.08,8.81,6.11,14.87,9.01c24.9,12,65.36,14.09,87.67-2.79c11.45-7.91,17.99-18.46,19.4-31.31
				C366.79,137.17,363.22,124.7,354.38,114.52"/>
			<path class="st1" d="M868.53,114.52c-27.55-30.45-58.64-10.61-75-26.82c-2.11-2.19-2.39-4.92-2.21-7.79
				c1.2-8.45,10.45-12.74,27.5-12.74c11.09,0,19.26,2.08,28,6.16c1.94,0.97,3.46,1.81,4.64,2.52c0.72,0.43,1.63,0.32,2.22-0.27
				l22.48-22.48c0.77-0.77,0.71-2.04-0.15-2.7c-26.27-20.36-74.59-25.21-101.91-6.24c-21.86,15.17-27,47.24-8.38,66.63
				c26.54,30.53,57.57,10.63,74.08,26.77c2,2.47,2.83,4.92,2.73,7.68c-1.39,8.96-10.8,13.5-27.97,13.5
				c-12.83-0.04-22.97-3.08-32.78-9.26c-0.72-0.45-1.65-0.36-2.25,0.24l-22.54,22.54c-0.77,0.77-0.69,2.03,0.16,2.71
				c3.82,3.08,8.81,6.11,14.87,9.01c24.9,12,65.36,14.09,87.67-2.79c11.45-7.91,17.99-18.46,19.4-31.31
				C880.94,137.17,877.37,124.7,868.53,114.52"/>
		</g>
	</g>
</g>
</svg>
